<?xml version="1.0" encoding="UTF-8"?><svg xmlns="http://www.w3.org/2000/svg" xmlns:xlink="http://www.w3.org/1999/xlink" fill-opacity="1" color-rendering="auto" color-interpolation="auto" stroke="black" text-rendering="auto" stroke-linecap="square" width="343" stroke-miterlimit="10" stroke-opacity="1" shape-rendering="auto" fill="black" stroke-dasharray="none" font-weight="normal" stroke-width="1" height="445" font-family="'Dialog'" font-style="normal" stroke-linejoin="miter" font-size="12" stroke-dashoffset="0" image-rendering="auto">
  <!--Generated by ySVG 2.5-->
  <defs id="genericDefs"/>
  <g>
    <defs id="defs1">
      <clipPath clipPathUnits="userSpaceOnUse" id="clipPath1">
        <path d="M0 0 L343 0 L343 445 L0 445 L0 0 Z"/>
      </clipPath>
      <clipPath clipPathUnits="userSpaceOnUse" id="clipPath2">
        <path d="M0 -15 L343 -15 L343 430 L0 430 L0 -15 Z"/>
      </clipPath>
      <clipPath clipPathUnits="userSpaceOnUse" id="clipPath3">
        <path d="M15 144 L15 298 L130 298 L130 144 Z"/>
      </clipPath>
      <clipPath clipPathUnits="userSpaceOnUse" id="clipPath4">
        <path d="M67 0 L67 114 L231 114 L231 0 Z"/>
      </clipPath>
      <clipPath clipPathUnits="userSpaceOnUse" id="clipPath5">
        <path d="M131 386 L131 414 L231 414 L231 386 Z"/>
      </clipPath>
      <clipPath clipPathUnits="userSpaceOnUse" id="clipPath6">
        <path d="M45 328 L45 356 L160 356 L160 328 Z"/>
      </clipPath>
      <clipPath clipPathUnits="userSpaceOnUse" id="clipPath7">
        <path d="M190 328 L190 356 L327 356 L327 328 Z"/>
      </clipPath>
      <clipPath clipPathUnits="userSpaceOnUse" id="clipPath8">
        <path d="M160 207 L160 235 L292 235 L292 207 Z"/>
      </clipPath>
    </defs>
    <g fill="white" text-rendering="geometricPrecision" shape-rendering="geometricPrecision" transform="translate(0,15)" stroke="white">
      <rect x="0" width="343" height="445" y="-15" clip-path="url(#clipPath2)" stroke="none"/>
    </g>
    <g fill="rgb(255,204,0)" text-rendering="geometricPrecision" shape-rendering="geometricPrecision" transform="matrix(1,0,0,1,0,15)" stroke="rgb(255,204,0)">
      <rect x="16" width="113" height="152" y="145" clip-path="url(#clipPath2)" stroke="none"/>
      <rect x="15" y="144" clip-path="url(#clipPath2)" fill="yellow" width="1" height="154" stroke="none"/>
      <rect x="16" y="144" clip-path="url(#clipPath2)" fill="yellow" width="113" height="1" stroke="none"/>
      <rect x="16" y="297" clip-path="url(#clipPath2)" fill="rgb(178,142,0)" width="114" height="1" stroke="none"/>
      <rect x="129" y="144" clip-path="url(#clipPath2)" fill="rgb(178,142,0)" width="1" height="153" stroke="none"/>
    </g>
    <g font-size="13" stroke-linecap="butt" transform="matrix(1,0,0,1,0,15)" text-rendering="geometricPrecision" font-family="sans-serif" shape-rendering="geometricPrecision" font-weight="bold" stroke-miterlimit="1.45">
      <text x="38.1941" xml:space="preserve" y="161.8169" clip-path="url(#clipPath3)" stroke="none">Objeto3D</text>
    </g>
    <g shape-rendering="geometricPrecision" text-rendering="geometricPrecision" transform="matrix(1,0,0,1,0,15)">
      <line y2="169" fill="none" x1="16" clip-path="url(#clipPath3)" x2="129" y1="169"/>
      <text stroke-linecap="butt" x="20" y="186.0215" clip-path="url(#clipPath3)" font-family="sans-serif" stroke="none" xml:space="preserve" stroke-miterlimit="1.45">+vertices</text>
      <text stroke-linecap="butt" x="20" y="199.9902" clip-path="url(#clipPath3)" font-family="sans-serif" stroke="none" xml:space="preserve" stroke-miterlimit="1.45">+normais</text>
      <text stroke-linecap="butt" x="20" y="213.959" clip-path="url(#clipPath3)" font-family="sans-serif" stroke="none" xml:space="preserve" stroke-miterlimit="1.45">+indices</text>
      <text stroke-linecap="butt" x="20" y="227.9277" clip-path="url(#clipPath3)" font-family="sans-serif" stroke="none" xml:space="preserve" stroke-miterlimit="1.45">+bufferVertices</text>
      <text stroke-linecap="butt" x="20" y="241.8965" clip-path="url(#clipPath3)" font-family="sans-serif" stroke="none" xml:space="preserve" stroke-miterlimit="1.45">+bufferNormais</text>
      <text stroke-linecap="butt" x="20" y="255.8652" clip-path="url(#clipPath3)" font-family="sans-serif" stroke="none" xml:space="preserve" stroke-miterlimit="1.45">+bufferIndices</text>
      <line y2="263" fill="none" x1="16" clip-path="url(#clipPath3)" x2="129" y1="263"/>
      <text stroke-linecap="butt" x="20" y="279.834" clip-path="url(#clipPath3)" font-family="sans-serif" stroke="none" xml:space="preserve" stroke-miterlimit="1.45">+lerOBJ(caminho)</text>
      <text stroke-linecap="butt" x="20" y="293.8027" clip-path="url(#clipPath3)" font-family="sans-serif" stroke="none" xml:space="preserve" stroke-miterlimit="1.45">+desenhar()</text>
      <rect x="68" y="1" clip-path="url(#clipPath2)" fill="rgb(255,204,0)" width="162" height="112" stroke="none"/>
      <rect x="67" y="0" clip-path="url(#clipPath2)" fill="yellow" width="1" height="114" stroke="none"/>
      <rect x="68" y="0" clip-path="url(#clipPath2)" fill="yellow" width="162" height="1" stroke="none"/>
      <rect x="68" y="113" clip-path="url(#clipPath2)" fill="rgb(178,142,0)" width="163" height="1" stroke="none"/>
      <rect x="230" y="0" clip-path="url(#clipPath2)" fill="rgb(178,142,0)" width="1" height="113" stroke="none"/>
    </g>
    <g font-size="13" stroke-linecap="butt" transform="matrix(1,0,0,1,0,15)" text-rendering="geometricPrecision" font-family="sans-serif" shape-rendering="geometricPrecision" font-weight="bold" stroke-miterlimit="1.45">
      <text x="124.2656" xml:space="preserve" y="17.0669" clip-path="url(#clipPath4)" stroke="none">Engine</text>
    </g>
    <g shape-rendering="geometricPrecision" text-rendering="geometricPrecision" transform="matrix(1,0,0,1,0,15)">
      <line y2="25" fill="none" x1="68" clip-path="url(#clipPath4)" x2="230" y1="25"/>
      <line y2="35" fill="none" x1="68" clip-path="url(#clipPath4)" x2="230" y1="35"/>
      <text stroke-linecap="butt" x="72.25" y="51.2715" clip-path="url(#clipPath4)" font-family="sans-serif" stroke="none" xml:space="preserve" stroke-miterlimit="1.45">+iniciar()</text>
      <text stroke-linecap="butt" x="72.25" y="65.2402" clip-path="url(#clipPath4)" font-family="sans-serif" stroke="none" xml:space="preserve" stroke-miterlimit="1.45">+adicionarObjeto3D(obj)</text>
      <text stroke-linecap="butt" x="72.25" y="79.209" clip-path="url(#clipPath4)" font-family="sans-serif" stroke="none" xml:space="preserve" stroke-miterlimit="1.45">+newObjeto3D()</text>
      <text stroke-linecap="butt" x="72.25" y="93.1777" clip-path="url(#clipPath4)" font-family="sans-serif" stroke="none" xml:space="preserve" stroke-miterlimit="1.45">+lerOBJ(caminho)</text>
      <text stroke-linecap="butt" x="72.25" y="107.1465" clip-path="url(#clipPath4)" font-family="sans-serif" stroke="none" xml:space="preserve" stroke-miterlimit="1.45">+desenhar()</text>
      <rect x="132" y="387" clip-path="url(#clipPath2)" fill="rgb(255,204,0)" width="98" height="26" stroke="none"/>
      <rect x="131" y="386" clip-path="url(#clipPath2)" fill="yellow" width="1" height="28" stroke="none"/>
      <rect x="132" y="386" clip-path="url(#clipPath2)" fill="yellow" width="98" height="1" stroke="none"/>
      <rect x="132" y="413" clip-path="url(#clipPath2)" fill="rgb(178,142,0)" width="99" height="1" stroke="none"/>
      <rect x="230" y="386" clip-path="url(#clipPath2)" fill="rgb(178,142,0)" width="1" height="27" stroke="none"/>
    </g>
    <g font-size="13" stroke-linecap="butt" transform="matrix(1,0,0,1,0,15)" text-rendering="geometricPrecision" font-family="sans-serif" shape-rendering="geometricPrecision" font-weight="bold" stroke-miterlimit="1.45">
      <text x="155.0381" xml:space="preserve" y="403.8169" clip-path="url(#clipPath5)" stroke="none">Shader</text>
    </g>
    <g fill="rgb(255,204,0)" text-rendering="geometricPrecision" shape-rendering="geometricPrecision" transform="matrix(1,0,0,1,0,15)" stroke="rgb(255,204,0)">
      <rect x="46" width="113" height="26" y="329" clip-path="url(#clipPath2)" stroke="none"/>
      <rect x="45" y="328" clip-path="url(#clipPath2)" fill="yellow" width="1" height="28" stroke="none"/>
      <rect x="46" y="328" clip-path="url(#clipPath2)" fill="yellow" width="113" height="1" stroke="none"/>
      <rect x="46" y="355" clip-path="url(#clipPath2)" fill="rgb(178,142,0)" width="114" height="1" stroke="none"/>
      <rect x="159" y="328" clip-path="url(#clipPath2)" fill="rgb(178,142,0)" width="1" height="27" stroke="none"/>
    </g>
    <g font-size="13" stroke-linecap="butt" transform="matrix(1,0,0,1,0,15)" text-rendering="geometricPrecision" font-family="sans-serif" shape-rendering="geometricPrecision" font-weight="bold" stroke-miterlimit="1.45">
      <text x="52.6853" xml:space="preserve" y="345.8169" clip-path="url(#clipPath6)" stroke="none">VertexShader</text>
    </g>
    <g fill="rgb(255,204,0)" text-rendering="geometricPrecision" shape-rendering="geometricPrecision" transform="matrix(1,0,0,1,0,15)" stroke="rgb(255,204,0)">
      <rect x="191" width="135" height="26" y="329" clip-path="url(#clipPath2)" stroke="none"/>
      <rect x="190" y="328" clip-path="url(#clipPath2)" fill="yellow" width="1" height="28" stroke="none"/>
      <rect x="191" y="328" clip-path="url(#clipPath2)" fill="yellow" width="135" height="1" stroke="none"/>
      <rect x="191" y="355" clip-path="url(#clipPath2)" fill="rgb(178,142,0)" width="136" height="1" stroke="none"/>
      <rect x="326" y="328" clip-path="url(#clipPath2)" fill="rgb(178,142,0)" width="1" height="27" stroke="none"/>
    </g>
    <g font-size="13" stroke-linecap="butt" transform="matrix(1,0,0,1,0,15)" text-rendering="geometricPrecision" font-family="sans-serif" shape-rendering="geometricPrecision" font-weight="bold" stroke-miterlimit="1.45">
      <text x="197.4373" xml:space="preserve" y="345.8169" clip-path="url(#clipPath7)" stroke="none">FragmentShader</text>
    </g>
    <g fill="rgb(255,204,0)" text-rendering="geometricPrecision" shape-rendering="geometricPrecision" transform="matrix(1,0,0,1,0,15)" stroke="rgb(255,204,0)">
      <rect x="161" width="130" height="26" y="208" clip-path="url(#clipPath2)" stroke="none"/>
      <rect x="160" y="207" clip-path="url(#clipPath2)" fill="yellow" width="1" height="28" stroke="none"/>
      <rect x="161" y="207" clip-path="url(#clipPath2)" fill="yellow" width="130" height="1" stroke="none"/>
      <rect x="161" y="234" clip-path="url(#clipPath2)" fill="rgb(178,142,0)" width="131" height="1" stroke="none"/>
      <rect x="291" y="207" clip-path="url(#clipPath2)" fill="rgb(178,142,0)" width="1" height="27" stroke="none"/>
    </g>
    <g font-size="13" stroke-linecap="butt" transform="matrix(1,0,0,1,0,15)" text-rendering="geometricPrecision" font-family="sans-serif" shape-rendering="geometricPrecision" font-weight="bold" stroke-miterlimit="1.45">
      <text x="168.5854" xml:space="preserve" y="224.8169" clip-path="url(#clipPath8)" stroke="none">ShaderProgram</text>
      <path fill="none" d="M108.25 121.7793 L108.25 129.75 L72.5 129.75 L72.5 144.7207" clip-path="url(#clipPath2)"/>
      <path d="M108.25 114.7793 L113.25 121.7793 L108.25 128.7793 L103.25 121.7793 Z" clip-path="url(#clipPath2)" stroke="none"/>
      <path fill="none" d="M103 356.7793 L103 371.75 L156 371.75 L156 386.7207" clip-path="url(#clipPath2)"/>
    </g>
    <g stroke-linecap="butt" transform="matrix(1,0,0,1,0,15)" fill="white" text-rendering="geometricPrecision" shape-rendering="geometricPrecision" stroke="white" stroke-miterlimit="1.45">
      <path d="M156 386.7207 L162 370.7207 L150 370.7207 Z" clip-path="url(#clipPath2)" stroke="none"/>
      <path fill="none" d="M156 386.7207 L162 370.7207 L150 370.7207 Z" clip-path="url(#clipPath2)" stroke="black"/>
      <path fill="none" d="M259 356.7793 L259 371.75 L206 371.75 L206 386.7207" clip-path="url(#clipPath2)" stroke="black"/>
      <path d="M206 386.7207 L212 370.7207 L200 370.7207 Z" clip-path="url(#clipPath2)" stroke="none"/>
      <path fill="none" d="M206 386.7207 L212 370.7207 L200 370.7207 Z" clip-path="url(#clipPath2)" stroke="black"/>
      <path fill="none" d="M190.25 121.7793 L190.25 129.75 L226 129.75 L226 207.7119" clip-path="url(#clipPath2)" stroke="black"/>
      <path fill="black" d="M190.25 114.7793 L195.25 121.7793 L190.25 128.7793 L185.25 121.7793 Z" clip-path="url(#clipPath2)" stroke="none"/>
      <path fill="none" d="M193 242.7881 L193 313.75 L103 313.75 L103 328.7207" clip-path="url(#clipPath2)" stroke="black"/>
      <path fill="black" d="M193 235.7881 L198 242.7881 L193 249.7881 L188 242.7881 Z" clip-path="url(#clipPath2)" stroke="none"/>
      <path fill="none" d="M259 242.7954 L259 328.7046" clip-path="url(#clipPath2)" stroke="black"/>
      <path fill="black" d="M259 235.7954 L264 242.7954 L259 249.7954 L254 242.7954 Z" clip-path="url(#clipPath2)" stroke="none"/>
    </g>
  </g>
</svg>
