<?xml version="1.0" encoding="UTF-8" standalone="no"?>
<!-- Created with Inkscape (http://www.inkscape.org/) -->

<svg
   xmlns:dc="http://purl.org/dc/elements/1.1/"
   xmlns:cc="http://creativecommons.org/ns#"
   xmlns:rdf="http://www.w3.org/1999/02/22-rdf-syntax-ns#"
   xmlns:svg="http://www.w3.org/2000/svg"
   xmlns="http://www.w3.org/2000/svg"
   xmlns:sodipodi="http://sodipodi.sourceforge.net/DTD/sodipodi-0.dtd"
   xmlns:inkscape="http://www.inkscape.org/namespaces/inkscape"
   width="660.5"
   height="660.50006"
   id="svg4185"
   version="1.1"
   inkscape:version="0.48.4 r9939"
   sodipodi:docname="aula14brescircle.svg"
   inkscape:export-filename="/home/acmt/Documentos/git/acmthakyll/assets/images/aula14brescircle.png"
   inkscape:export-xdpi="53"
   inkscape:export-ydpi="53">
  <defs
     id="defs4187" />
  <sodipodi:namedview
     id="base"
     pagecolor="#ffffff"
     bordercolor="#666666"
     borderopacity="1.0"
     inkscape:pageopacity="0.0"
     inkscape:pageshadow="2"
     inkscape:zoom="0.49497475"
     inkscape:cx="329.88495"
     inkscape:cy="331.73162"
     inkscape:document-units="px"
     inkscape:current-layer="layer1"
     showgrid="false"
     inkscape:snap-bbox="true"
     inkscape:snap-bbox-midpoints="true"
     showguides="true"
     inkscape:guide-bbox="true"
     fit-margin-top="5"
     fit-margin-left="5"
     fit-margin-right="5"
     fit-margin-bottom="5"
     inkscape:window-width="682"
     inkscape:window-height="720"
     inkscape:window-x="0"
     inkscape:window-y="18"
     inkscape:window-maximized="0"
     inkscape:snap-bbox-edge-midpoints="true"
     inkscape:bbox-nodes="true"
     inkscape:object-nodes="true"
     inkscape:object-paths="true"
     inkscape:snap-intersection-paths="true"
     inkscape:snap-object-midpoints="true"
     inkscape:snap-midpoints="true" />
  <metadata
     id="metadata4190">
    <rdf:RDF>
      <cc:Work
         rdf:about="">
        <dc:format>image/svg+xml</dc:format>
        <dc:type
           rdf:resource="http://purl.org/dc/dcmitype/StillImage" />
        <dc:title></dc:title>
      </cc:Work>
    </rdf:RDF>
  </metadata>
  <g
     inkscape:label="Livello 1"
     inkscape:groupmode="layer"
     id="layer1"
     transform="translate(-108.85714,-259.79073)">
    <path
       style="fill:#00ff00;fill-opacity:1;stroke:none"
       d="m 671.61389,843.71088 0,-22.42012 22.22336,0 22.22335,0 0,22.42012 0,22.42009 -22.22335,0 -22.22336,0 0,-22.42009 z"
       id="path4968"
       inkscape:connector-curvature="0" />
    <path
       style="fill:#00ff00;fill-opacity:1;stroke:none"
       d="m 671.61389,798.16579 0,-23.12497 22.22336,0 22.22335,0 0,23.12497 0,23.12498 -22.22335,0 -22.22336,0 0,-23.12498 z"
       id="path4970"
       inkscape:connector-curvature="0" />
    <path
       style="fill:#00ff00;fill-opacity:1;stroke:none"
       d="m 671.61389,752.19856 0,-22.84225 22.22336,0 22.22335,0 0,22.84225 0,22.84224 -22.22335,0 -22.22336,0 0,-22.84224 z"
       id="path4972"
       inkscape:connector-curvature="0" />
    <path
       style="fill:#00ff00;fill-opacity:1;stroke:none"
       d="m 671.61389,705.94859 0,-23.40778 22.22336,0 22.22335,0 0,23.40778 0,23.40775 -22.22335,0 -22.22336,0 0,-23.40775 z"
       id="path4974"
       inkscape:connector-curvature="0" />
    <path
       style="fill:#00ff00;fill-opacity:1;stroke:none"
       d="m 625.14688,659.41577 0,-23.12501 22.22335,0 22.22336,0 0,23.12501 0,23.125 -22.22336,0 -22.22335,0 0,-23.125 z"
       id="path4976"
       inkscape:connector-curvature="0" />
    <path
       style="fill:#00ff00;fill-opacity:1;stroke:none"
       d="m 625.14688,613.83011 0,-22.46063 22.22335,0 22.22336,0 0,22.46063 0,22.46064 -22.22336,0 -22.22335,0 0,-22.46064 z"
       id="path4982"
       inkscape:connector-curvature="0" />
    <path
       style="fill:#00ff00;fill-opacity:1;stroke:none"
       d="m 578.67986,567.77463 0,-22.26609 22.22335,0 22.22336,0 0,22.26609 0,22.26608 -22.22336,0 -22.22335,0 0,-22.26608 z"
       id="path4984"
       inkscape:connector-curvature="0" />
    <path
       style="fill:#00ff00;fill-opacity:1;stroke:none"
       d="m 578.67986,521.41615 0,-22.37459 22.22335,0 22.22336,0 0,22.37459 0,22.3746 -22.22336,0 -22.22335,0 0,-22.3746 z"
       id="path4986"
       inkscape:connector-curvature="0" />
    <path
       style="fill:#00ff00;fill-opacity:1;stroke:none"
       d="m 549.35571,341.00713 0,-22.22335 22.22336,0 22.22335,0 0,22.22335 0,22.22336 -22.22335,0 -22.22336,0 0,-22.22336 z"
       id="path4988"
       inkscape:connector-curvature="0"
       transform="translate(-17.142865,133.79075)" />
    <path
       style="fill:#008000;fill-opacity:1;stroke:none"
       d="m 485.35711,428.33087 0,-22.22336 22.4177,0 22.41772,0 0,22.22336 0,22.22335 -22.41772,0 -22.4177,0 0,-22.22335 z"
       id="path4990"
       inkscape:connector-curvature="0" />
    <path
       style="fill:#008000;fill-opacity:1;stroke:none"
       d="m 439.10715,428.33087 0,-22.22336 23.12501,0 23.12498,0 0,22.22336 0,22.22335 -23.12498,0 -23.12501,0 0,-22.22335 z"
       id="path4992"
       inkscape:connector-curvature="0" />
    <path
       style="fill:#008000;fill-opacity:1;stroke:none"
       d="m 392.85714,381.86385 0,-22.22336 23.12499,0 23.12499,0 0,22.22336 0,22.22336 -23.12499,0 -23.12499,0 0,-22.22336 z"
       id="path4994"
       inkscape:connector-curvature="0" />
    <path
       style="fill:#008000;fill-opacity:1;stroke:none"
       d="m 346.60716,381.86385 0,-22.22336 23.12499,0 23.12501,0 0,22.22336 0,22.22336 -23.12501,0 -23.12499,0 0,-22.22336 z"
       id="path4996"
       inkscape:connector-curvature="0" />
    <path
       style="fill:#008000;fill-opacity:1;stroke:none"
       d="m 300.35713,335.39683 0,-22.22335 23.12499,0 23.12501,0 0,22.22335 0,22.22336 -23.12501,0 -23.12499,0 0,-22.22336 z"
       id="path4998"
       inkscape:connector-curvature="0" />
    <path
       style="fill:#008000;fill-opacity:1;stroke:none"
       d="m 255.43105,335.39683 0,-22.22335 22.46304,0 22.46304,0 0,22.22335 0,22.22336 -22.46304,0 -22.46304,0 0,-22.22336 z"
       id="path5000"
       inkscape:connector-curvature="0" />
    <path
       style="fill:#008000;fill-opacity:1;stroke:none"
       d="m 208.96403,335.39683 0,-22.22335 22.57155,0 22.57155,0 0,22.22335 0,22.22336 -22.57155,0 -22.57155,0 0,-22.22336 z"
       id="path5002"
       inkscape:connector-curvature="0" />
    <path
       style="fill:#008000;fill-opacity:1;stroke:none"
       d="m 162.49701,335.39683 0,-22.22335 22.68006,0 22.68007,0 0,22.22335 0,22.22336 -22.68007,0 -22.68006,0 0,-22.22336 z"
       id="path5004"
       inkscape:connector-curvature="0" />
    <g
       id="g4844"
       style="stroke:#999999;stroke-width:3.24407029;stroke-miterlimit:4;stroke-dasharray:none"
       transform="matrix(1,0,0,0.85518877,0,124.99699)">
      <path
         inkscape:connector-curvature="0"
         id="path4787"
         d="m 392.85713,165.21936 0,757.14285"
         style="fill:none;stroke:#999999;stroke-width:3.24407029;stroke-linecap:butt;stroke-linejoin:miter;stroke-miterlimit:4;stroke-opacity:1;stroke-dasharray:none" />
      <path
         style="fill:none;stroke:#999999;stroke-width:3.24407029;stroke-linecap:butt;stroke-linejoin:miter;stroke-miterlimit:4;stroke-opacity:1;stroke-dasharray:none"
         d="m 762.85714,165.21936 0,757.14285"
         id="path4789"
         inkscape:connector-curvature="0" />
      <path
         inkscape:connector-curvature="0"
         id="path4795"
         d="m 716.60714,165.21936 0,757.14285"
         style="fill:none;stroke:#999999;stroke-width:3.24407029;stroke-linecap:butt;stroke-linejoin:miter;stroke-miterlimit:4;stroke-opacity:1;stroke-dasharray:none" />
      <path
         style="fill:none;stroke:#999999;stroke-width:3.24407029;stroke-linecap:butt;stroke-linejoin:miter;stroke-miterlimit:4;stroke-opacity:1;stroke-dasharray:none"
         d="m 670.35714,165.21936 0,757.14285"
         id="path4797"
         inkscape:connector-curvature="0" />
      <path
         inkscape:connector-curvature="0"
         id="path4799"
         d="m 624.10714,165.21936 0,757.14285"
         style="fill:none;stroke:#999999;stroke-width:3.24407029;stroke-linecap:butt;stroke-linejoin:miter;stroke-miterlimit:4;stroke-opacity:1;stroke-dasharray:none" />
      <path
         style="fill:none;stroke:#999999;stroke-width:3.24407029;stroke-linecap:butt;stroke-linejoin:miter;stroke-miterlimit:4;stroke-opacity:1;stroke-dasharray:none"
         d="m 577.85714,165.21936 0,757.14285"
         id="path4801"
         inkscape:connector-curvature="0" />
      <path
         inkscape:connector-curvature="0"
         id="path4803"
         d="m 531.60714,165.21936 0,757.14285"
         style="fill:none;stroke:#999999;stroke-width:3.24407029;stroke-linecap:butt;stroke-linejoin:miter;stroke-miterlimit:4;stroke-opacity:1;stroke-dasharray:none" />
      <path
         style="fill:none;stroke:#999999;stroke-width:3.24407029;stroke-linecap:butt;stroke-linejoin:miter;stroke-miterlimit:4;stroke-opacity:1;stroke-dasharray:none"
         d="m 485.35714,165.21936 0,757.14285"
         id="path4805"
         inkscape:connector-curvature="0" />
      <path
         inkscape:connector-curvature="0"
         id="path4807"
         d="m 439.10714,165.21936 0,757.14285"
         style="fill:none;stroke:#999999;stroke-width:3.24407029;stroke-linecap:butt;stroke-linejoin:miter;stroke-miterlimit:4;stroke-opacity:1;stroke-dasharray:none" />
      <path
         style="fill:none;stroke:#999999;stroke-width:3.24407029;stroke-linecap:butt;stroke-linejoin:miter;stroke-miterlimit:4;stroke-opacity:1;stroke-dasharray:none"
         d="m 346.60714,165.21936 0,757.14285"
         id="path4918"
         inkscape:connector-curvature="0" />
      <path
         inkscape:connector-curvature="0"
         id="path4920"
         d="m 300.35713,165.21936 0,757.14285"
         style="fill:none;stroke:#999999;stroke-width:3.24407029;stroke-linecap:butt;stroke-linejoin:miter;stroke-miterlimit:4;stroke-opacity:1;stroke-dasharray:none" />
      <path
         style="fill:none;stroke:#999999;stroke-width:3.24407029;stroke-linecap:butt;stroke-linejoin:miter;stroke-miterlimit:4;stroke-opacity:1;stroke-dasharray:none"
         d="m 254.10713,165.21936 0,757.14285"
         id="path4922"
         inkscape:connector-curvature="0" />
      <path
         inkscape:connector-curvature="0"
         id="path4924"
         d="m 207.85714,165.21936 0,757.14285"
         style="fill:none;stroke:#999999;stroke-width:3.24407029;stroke-linecap:butt;stroke-linejoin:miter;stroke-miterlimit:4;stroke-opacity:1;stroke-dasharray:none" />
      <path
         style="fill:none;stroke:#999999;stroke-width:3.24407029;stroke-linecap:butt;stroke-linejoin:miter;stroke-miterlimit:4;stroke-opacity:1;stroke-dasharray:none"
         d="m 161.60713,165.21936 0,757.14285"
         id="path4926"
         inkscape:connector-curvature="0" />
      <path
         inkscape:connector-curvature="0"
         id="path4928"
         d="m 115.35714,165.21936 0,757.14285"
         style="fill:none;stroke:#999999;stroke-width:3.24407029;stroke-linecap:butt;stroke-linejoin:miter;stroke-miterlimit:4;stroke-opacity:1;stroke-dasharray:none" />
    </g>
    <g
       id="g4831"
       style="stroke:#999999;stroke-width:3.24407053;stroke-miterlimit:4;stroke-dasharray:none"
       transform="matrix(0.85518868,0,0,1,103.14016,0)">
      <path
         inkscape:connector-curvature="0"
         id="path4811"
         d="m 771.42856,913.79079 -757.14285,0"
         style="fill:none;stroke:#999999;stroke-width:3.24407053;stroke-linecap:butt;stroke-linejoin:miter;stroke-miterlimit:4;stroke-opacity:1;stroke-dasharray:none" />
      <path
         style="fill:none;stroke:#999999;stroke-width:3.24407053;stroke-linecap:butt;stroke-linejoin:miter;stroke-miterlimit:4;stroke-opacity:1;stroke-dasharray:none"
         d="m 771.42856,867.54078 -757.14285,0"
         id="path4813"
         inkscape:connector-curvature="0" />
      <path
         inkscape:connector-curvature="0"
         id="path4815"
         d="m 771.42856,821.29077 -757.14285,0"
         style="fill:none;stroke:#999999;stroke-width:3.24407053;stroke-linecap:butt;stroke-linejoin:miter;stroke-miterlimit:4;stroke-opacity:1;stroke-dasharray:none" />
      <path
         style="fill:none;stroke:#999999;stroke-width:3.24407053;stroke-linecap:butt;stroke-linejoin:miter;stroke-miterlimit:4;stroke-opacity:1;stroke-dasharray:none"
         d="m 771.42856,775.04079 -757.14285,0"
         id="path4817"
         inkscape:connector-curvature="0" />
      <path
         inkscape:connector-curvature="0"
         id="path4819"
         d="m 771.42856,728.79079 -757.14285,0"
         style="fill:none;stroke:#999999;stroke-width:3.24407053;stroke-linecap:butt;stroke-linejoin:miter;stroke-miterlimit:4;stroke-opacity:1;stroke-dasharray:none" />
      <path
         style="fill:none;stroke:#999999;stroke-width:3.24407053;stroke-linecap:butt;stroke-linejoin:miter;stroke-miterlimit:4;stroke-opacity:1;stroke-dasharray:none"
         d="m 771.42856,682.54079 -757.14285,0"
         id="path4821"
         inkscape:connector-curvature="0" />
      <path
         inkscape:connector-curvature="0"
         id="path4823"
         d="m 771.42856,636.29076 -757.14285,0"
         style="fill:none;stroke:#999999;stroke-width:3.24407053;stroke-linecap:butt;stroke-linejoin:miter;stroke-miterlimit:4;stroke-opacity:1;stroke-dasharray:none" />
      <path
         style="fill:none;stroke:#999999;stroke-width:3.24407053;stroke-linecap:butt;stroke-linejoin:miter;stroke-miterlimit:4;stroke-opacity:1;stroke-dasharray:none"
         d="m 771.42856,590.04073 -757.14285,0"
         id="path4825"
         inkscape:connector-curvature="0" />
      <path
         inkscape:connector-curvature="0"
         id="path4827"
         d="m 771.42856,543.79073 -757.14285,0"
         style="fill:none;stroke:#999999;stroke-width:3.24407053;stroke-linecap:butt;stroke-linejoin:miter;stroke-miterlimit:4;stroke-opacity:1;stroke-dasharray:none" />
      <path
         style="fill:none;stroke:#999999;stroke-width:3.24407053;stroke-linecap:butt;stroke-linejoin:miter;stroke-miterlimit:4;stroke-opacity:1;stroke-dasharray:none"
         d="m 771.42856,497.54073 -757.14285,0"
         id="path4906"
         inkscape:connector-curvature="0" />
      <path
         inkscape:connector-curvature="0"
         id="path4908"
         d="m 771.42856,451.29073 -757.14285,0"
         style="fill:none;stroke:#999999;stroke-width:3.24407053;stroke-linecap:butt;stroke-linejoin:miter;stroke-miterlimit:4;stroke-opacity:1;stroke-dasharray:none" />
      <path
         style="fill:none;stroke:#999999;stroke-width:3.24407053;stroke-linecap:butt;stroke-linejoin:miter;stroke-miterlimit:4;stroke-opacity:1;stroke-dasharray:none"
         d="m 771.42856,405.04073 -757.14285,0"
         id="path4910"
         inkscape:connector-curvature="0" />
      <path
         inkscape:connector-curvature="0"
         id="path4912"
         d="m 771.42856,358.79073 -757.14285,0"
         style="fill:none;stroke:#999999;stroke-width:3.24407053;stroke-linecap:butt;stroke-linejoin:miter;stroke-miterlimit:4;stroke-opacity:1;stroke-dasharray:none" />
      <path
         style="fill:none;stroke:#999999;stroke-width:3.24407053;stroke-linecap:butt;stroke-linejoin:miter;stroke-miterlimit:4;stroke-opacity:1;stroke-dasharray:none"
         d="m 771.42856,312.54073 -757.14285,0"
         id="path4914"
         inkscape:connector-curvature="0" />
      <path
         inkscape:connector-curvature="0"
         id="path4916"
         d="m 771.42856,266.29073 -757.14285,0"
         style="fill:none;stroke:#999999;stroke-width:3.24407053;stroke-linecap:butt;stroke-linejoin:miter;stroke-miterlimit:4;stroke-opacity:1;stroke-dasharray:none" />
    </g>
    <path
       style="fill:none;stroke:#000000;stroke-width:5;stroke-linecap:butt;stroke-linejoin:miter;stroke-miterlimit:4;stroke-opacity:1;stroke-dasharray:none"
       d="M 571.57907,341.00714 178.75,733.75003"
       id="path5006"
       inkscape:connector-curvature="0"
       transform="translate(-17.142865,133.79075)"
       sodipodi:nodetypes="cc" />
    <text
       xml:space="preserve"
       style="font-size:40px;font-style:normal;font-weight:normal;line-height:125%;letter-spacing:0px;word-spacing:0px;fill:#000000;fill-opacity:1;stroke:none;font-family:Sans"
       x="366.60715"
       y="775.04077"
       id="text5008"
       sodipodi:linespacing="125%"><tspan
         sodipodi:role="line"
         id="tspan5010"
         x="366.60715"
         y="775.04077">1ยบ Octante</tspan></text>
    <text
       sodipodi:linespacing="125%"
       id="text5012"
       y="529.47437"
       x="183.33174"
       style="font-size:40px;font-style:normal;font-weight:normal;line-height:125%;letter-spacing:0px;word-spacing:0px;fill:#000000;fill-opacity:1;stroke:none;font-family:Sans"
       xml:space="preserve"><tspan
         y="529.47437"
         x="183.33174"
         id="tspan5014"
         sodipodi:role="line">2ยบ Octante</tspan><tspan
         y="579.47437"
         x="183.33174"
         sodipodi:role="line"
         id="tspan5016">(espelhado)</tspan></text>
    <path
       style="fill:none;stroke:#000000;stroke-width:7;stroke-linecap:butt;stroke-linejoin:miter;stroke-miterlimit:4;stroke-opacity:1;stroke-dasharray:none"
       d="m 178.75,733.75003 535.51311,0"
       id="path5018"
       inkscape:connector-curvature="0"
       transform="translate(-17.142865,133.79075)"
       sodipodi:nodetypes="cc" />
    <path
       style="fill:none;stroke:#000000;stroke-width:7;stroke-linecap:butt;stroke-linejoin:miter;stroke-miterlimit:4;stroke-opacity:1;stroke-dasharray:none"
       d="m 178.75,756.69219 0,-48.48733"
       id="path5020"
       inkscape:connector-curvature="0"
       transform="translate(-17.142865,133.79075)" />
    <path
       style="fill:none;stroke:#000000;stroke-width:7;stroke-linecap:butt;stroke-linejoin:miter;stroke-miterlimit:4;stroke-opacity:1;stroke-dasharray:none"
       d="m 710.64232,756.69219 0,-45.96194"
       id="path5022"
       inkscape:connector-curvature="0"
       transform="translate(-17.142865,133.79075)" />
    <text
       sodipodi:linespacing="125%"
       id="text5024"
       y="915.04077"
       x="426.60715"
       style="font-size:40px;font-style:normal;font-weight:normal;line-height:125%;letter-spacing:0px;word-spacing:0px;fill:#000000;fill-opacity:1;stroke:none;font-family:Sans"
       xml:space="preserve"><tspan
         y="915.04077"
         x="426.60715"
         id="tspan5026"
         sodipodi:role="line">r</tspan></text>
  </g>
</svg>
