<?xml version="1.0" encoding="UTF-8" standalone="no"?>
<svg
   xmlns:dc="http://purl.org/dc/elements/1.1/"
   xmlns:cc="http://creativecommons.org/ns#"
   xmlns:rdf="http://www.w3.org/1999/02/22-rdf-syntax-ns#"
   xmlns:svg="http://www.w3.org/2000/svg"
   xmlns="http://www.w3.org/2000/svg"
   xmlns:xlink="http://www.w3.org/1999/xlink"
   xmlns:sodipodi="http://sodipodi.sourceforge.net/DTD/sodipodi-0.dtd"
   xmlns:inkscape="http://www.inkscape.org/namespaces/inkscape"
   id="svg602"
   xml:space="preserve"
   height="500"
   width="175"
   version="1.1"
   inkscape:version="0.48.4 r9939"
   sodipodi:docname="mouse.svg"><sodipodi:namedview
     pagecolor="#ffffff"
     bordercolor="#666666"
     borderopacity="1"
     objecttolerance="10"
     gridtolerance="10"
     guidetolerance="10"
     inkscape:pageopacity="0"
     inkscape:pageshadow="2"
     inkscape:window-width="1366"
     inkscape:window-height="768"
     id="namedview3043"
     showgrid="false"
     inkscape:zoom="1.345613"
     inkscape:cx="-4.2321948"
     inkscape:cy="161.84179"
     inkscape:window-x="0"
     inkscape:window-y="0"
     inkscape:window-maximized="0"
     inkscape:current-layer="svg602" /><defs
     id="defs604"><linearGradient
       id="linearGradient650"><stop
         id="stop651"
         stop-color="#fff"
         offset="0" /><stop
         id="stop652"
         stop-color="#333"
         offset="1" /></linearGradient><linearGradient
       id="linearGradient643"
       y2="162.41107"
       spreadMethod="reflect"
       y1="161.64085"
       x2="193.63951"
       x1="193.6402"
       gradientTransform="matrix(0.64301476,0,0,1.4602347,-25.725702,-5.3124499)"
       gradientUnits="userSpaceOnUse"><stop
         id="stop641"
         stop-color="#333"
         offset="0" /><stop
         id="stop642"
         stop-color="#fff"
         offset="1" /></linearGradient><radialGradient
       id="radialGradient644"
       cy="168.11523"
       cx="159.49475"
       r="30.645786"
       spreadMethod="reflect"
       gradientTransform="matrix(0.64301476,0,0,1.4602347,-25.725702,-5.3124499)"
       fx="159.49475"
       fy="168.11523"
       gradientUnits="userSpaceOnUse"><stop
         id="stop647"
         stop-color="#b3b3eb"
         stop-opacity="0"
         offset="0" /><stop
         id="stop648"
         offset="1" /></radialGradient><radialGradient
       id="radialGradient654"
       xlink:href="#linearGradient650"
       spreadMethod="reflect"
       cy="170.1472"
       cx="85.527924"
       r="252.09401"
       gradientTransform="matrix(0.70694991,0,0,1.3281738,-25.725701,-2.2839712)"
       fx="85.527924"
       fy="170.1472"
       gradientUnits="userSpaceOnUse" /><radialGradient
       id="radialGradient656"
       xlink:href="#linearGradient650"
       spreadMethod="reflect"
       cy="180.05241"
       cx="195.27036"
       gradientTransform="matrix(0.63770908,0,0,1.7945719,-23.790369,-62.682011)"
       r="68.803032"
       fx="195.27036"
       fy="180.05241"
       gradientUnits="userSpaceOnUse" /></defs><path
     id="path637"
     d="M 89.328563,183.3012 C 133.53845,62.162051 6.9739303,135.44639 53.601185,8.2502885"
     inkscape:connector-curvature="0"
     style="fill:none;stroke:#4c4c4c;stroke-width:7.74999952;stroke-linecap:square" /><path
     id="path617"
     d="m 88.214351,494.80323 c -70.9645,0 -81.6928862,-63.01173 -80.9584768,-82.97546 1.0919249,-18.82988 2.0007328,-94.57575 -1.1335872,-158.35309 0.7983557,-69.69862 54.037232,-68.03175 82.072685,-68.03175 28.039328,0 81.279178,-1.66687 82.083338,68.03175 -3.13916,63.77734 -2.22842,139.52321 -1.13359,158.35309 0.72666,19.96373 -9.99882,82.96577 -80.959438,82.96577"
     inkscape:connector-curvature="0"
     style="fill:url(#radialGradient654);fill-rule:evenodd;stroke:#000000;stroke-width:1.12499988" /><path
     id="path655"
     d="m 103.25586,244.45804 a 15.139161,41.792154 0 1 0 -30.272627,0 15.139161,41.792154 0 1 0 30.272627,0 z"
     inkscape:connector-curvature="0"
     style="fill:url(#radialGradient656);fill-rule:evenodd" /><path
     id="path618"
     d="M 88.185282,185.84996 V 300.76739"
     inkscape:connector-curvature="0"
     style="fill:none;stroke:#000000;stroke-width:1.24999988" /><path
     id="path639"
     d="m 99.627733,243.86592 a 11.205075,25.445821 0 1 0 -22.410144,0 11.205075,25.445821 0 1 0 22.410144,0 z"
     inkscape:connector-curvature="0"
     style="fill:url(#linearGradient643);fill-rule:evenodd" /><path
     id="path645"
     d="m 99.627733,243.86592 a 11.205075,25.445821 0 1 0 -22.410144,0 11.205075,25.445821 0 1 0 22.410144,0 z"
     inkscape:connector-curvature="0"
     style="fill:url(#radialGradient644);fill-rule:evenodd" /><path
     id="path619"
     d="m 87.981821,300.70925 c -79.7851663,0 -77.669136,3.19807 -80.0535458,3.79892"
     inkscape:connector-curvature="0"
     style="fill:none;stroke:#000000;stroke-width:1.24999988;stroke-linecap:round" /><path
     id="path620"
     d="m 88.185282,300.70925 c 80.581588,0 80.310298,4.52576 80.310298,4.52576"
     inkscape:connector-curvature="0"
     style="fill:none;stroke:#000000;stroke-width:1.24999988;stroke-linecap:round" /><metadata
     id="metadata3041"><rdf:RDF><cc:Work><dc:format>image/svg+xml</dc:format><dc:type
           rdf:resource="http://purl.org/dc/dcmitype/StillImage" /><cc:license
           rdf:resource="http://creativecommons.org/licenses/publicdomain/" /><dc:publisher><cc:Agent
             rdf:about="http://openclipart.org/"><dc:title>Openclipart</dc:title></cc:Agent></dc:publisher><dc:title></dc:title><dc:date>2007-02-06T00:02:10</dc:date><dc:description>A simple top-down, shaded view of a computer mouse with a scroll wheel.</dc:description><dc:source>http://openclipart.org/detail/3038/computer-mouse-(top-down-view)-by-crispy</dc:source><dc:creator><cc:Agent><dc:title>Crispy</dc:title></cc:Agent></dc:creator><dc:subject><rdf:Bag><rdf:li>clip art</rdf:li><rdf:li>clipart</rdf:li><rdf:li>computer</rdf:li><rdf:li>computer mouse</rdf:li><rdf:li>computing</rdf:li><rdf:li>how i did it</rdf:li><rdf:li>image</rdf:li><rdf:li>media</rdf:li><rdf:li>mouse</rdf:li><rdf:li>public domain</rdf:li><rdf:li>svg</rdf:li></rdf:Bag></dc:subject></cc:Work><cc:License
         rdf:about="http://creativecommons.org/licenses/publicdomain/"><cc:permits
           rdf:resource="http://creativecommons.org/ns#Reproduction" /><cc:permits
           rdf:resource="http://creativecommons.org/ns#Distribution" /><cc:permits
           rdf:resource="http://creativecommons.org/ns#DerivativeWorks" /></cc:License></rdf:RDF></metadata><path
     style="fill:none;stroke:#000000;stroke-width:0.99999988px;stroke-linecap:butt;stroke-linejoin:miter;stroke-opacity:1"
     d="m 8.8356059,304.65745 c 17.2806531,-5.76163 79.3739611,-3.8157 79.3739611,-3.8157 l 0.06607,-13.90524 c -19.825235,-3.02575 -19.988677,-81.16679 0.40437,-85.04083 l 0.07856,-16.52569 c -28.081058,0.42188 -59.431867,1.20448 -73.442773,27.82182 -14.0109048,26.61738 -8.6403268,41.7717 -6.480246,91.46564 z"
     id="botaoEsquerdo"
     inkscape:connector-curvature="0"
     sodipodi:nodetypes="ccccczc" /><path
     sodipodi:nodetypes="ccccczc"
     inkscape:connector-curvature="0"
     id="botaoDireito"
     d="m 167.8982,304.65745 c -17.28065,-5.76163 -79.373957,-3.8157 -79.373957,-3.8157 l -0.06607,-13.90524 c 19.825237,-3.02575 19.988677,-81.16679 -0.404369,-85.04083 l -0.07856,-16.52569 c 28.081056,0.42188 59.431866,1.20448 73.442766,27.82182 14.01091,26.61738 8.64033,41.7717 6.48025,91.46564 z"
     style="fill:none;stroke:#000000;stroke-width:0.99999988px;stroke-linecap:butt;stroke-linejoin:miter;stroke-opacity:1" /><path
     style="fill:none;stroke:#000000;stroke-width:0.99999988px;stroke-linecap:butt;stroke-linejoin:miter;stroke-opacity:1"
     d="m 88.320794,218.69834 c 9.494779,0.0624 11.865076,18.95986 11.710136,26.99076 -0.154949,8.03091 -2.855029,23.49484 -11.964708,23.42595 -9.109675,-0.0689 -11.177377,-16.15892 -11.200988,-25.46298 -0.02364,-9.30406 1.960776,-25.01601 11.45556,-24.95373 z"
     id="botaoMeio"
     inkscape:connector-curvature="0"
     sodipodi:nodetypes="zzzzz" /></svg>